# xmcd
#
# Track frame offsets:
#	150
#	14977
#	27710
#	40857
#	59305
#	73165
#	87642
#	102715
#	114350
#	132882
#	148022
#	160187
#	174395
#
# Disc length: 2457 seconds
#
# Revision: 1
# Processed by: cddbd v1.5.1PL2 Copyright (c) Steve Scherf et al.
# Submitted via: audiograbber 1.83.01
#
DISCID=c309970d
DTITLE=LAURA CAMPANER E ZÉ TERRA - DUO CANTA VIOLA-COLCHA DE RETALHOS
DYEAR=1900
DGENRE=
TTITLE0=MEU PRIMEIRO AMOR
TTITLE1=FLOR DO CAFEZAL
TTITLE2=COLCHA DE RETALHOS
TTITLE3=CHUÁ-CHUÁ
TTITLE4=É BEM CEDO
TTITLE5=ANAHI
TTITLE6=SERTANEJA
TTITLE7=ÍNDIA
TTITLE8=ROLINHA
TTITLE9=SERRA DA BOA ESPERANÇA
TTITLE10=GUACYRA
TTITLE11=CAZIMHA PEQUENINA
TTITLE12=ÁGUA
EXTD=
EXTT0=
EXTT1=
EXTT2=
EXTT3=
EXTT4=
EXTT5=
EXTT6=
EXTT7=
EXTT8=
EXTT9=
EXTT10=
EXTT11=
EXTT12=
PLAYORDER=
